# xmcd
#
# Track frame offsets:
#	150
#	96985
#	170671
#	241994
#
# Disc length: 4233 seconds
# Revision: 0
# Processed by: cddbd v1.5.2PL0 Copyright (c) Steve Scherf et al.
# Submitted via: dBpowerAMP V12.0
#
DISCID=2e108704
DTITLE=Thomas Mann - Bekenntnisse des Hochstaplers Felix Krull Cd11 
DYEAR=2001
DGENRE=Spoken Word
TTITLE0=Drittes Buch - Siebentes Kapitel 
TTITLE1=Drittes Buch - Achtes Kapitel 1
TTITLE2=Drittes Buch - Achtes Kapitel 2
TTITLE3=Drittes Buch - Neuntes Kapitel 1
EXTD=
EXTT0=
EXTT1=
EXTT2=
EXTT3=
PLAYORDER=
